<svg width="28" height="28" viewBox="0 0 28 28" fill="none" xmlns="http://www.w3.org/2000/svg">
<path d="M13.7616 19.3895C13.685 19.3895 8.94907 25.9465 8.91079 25.9465C8.8725 25.9465 4.17485 22.6406 4.15626 22.5996C4.13766 22.5586 8.89219 15.7254 8.89219 15.6324C8.89219 15.5121 1.80469 13.2262 1.36719 13.0566C1.2961 13.0293 3.08438 7.48946 3.10079 7.47305C3.1336 7.43477 10.9977 10.0434 11.0578 10.0434C11.0797 10.0434 11.107 10.0105 11.1125 9.97227C11.1344 9.86289 11.1672 1.84571 11.2055 1.79102C11.2492 1.72539 16.9203 1.75274 16.9531 1.77461C17.0352 1.8293 17.1445 10.3113 17.2867 10.3113C17.3633 10.3113 24.8719 7.74102 24.9047 7.7793C24.9484 7.82852 26.6492 13.3684 26.6273 13.3902C26.5781 13.4395 18.9602 15.966 18.9383 16.059C18.9219 16.1355 23.4664 22.7363 23.45 22.7801C23.4336 22.8238 18.7742 26.2527 18.7305 26.2527C18.6758 26.2418 13.8633 19.3895 13.7594 19.3895H13.7616Z" fill="#F1F1F1"/>
</svg>
