<?xml version="1.0" encoding="UTF-8"?>
<svg id="Capa_2" data-name="Capa 2" xmlns="http://www.w3.org/2000/svg" viewBox="0 0 80.94 80.94">
  <defs>
    <style>
      .cls-1 {
        fill: #fff;
      }

      .cls-2 {
        fill: #1d1d1d;
      }
    </style>
  </defs>
  <g id="Capa_2-2" data-name="Capa 2">
    <rect class="cls-1" width="80.94" height="80.94"/>
    <g>
      <g>
        <path class="cls-2" d="m25.69,26.13c.37-.44.82-.61,1.39-.61.86,0,1.3.4,1.3,1.19v10.73c0,.67-.4.82-1.17.82s-1.17-.16-1.17-.82v-8.31l-7,8.47c-.4.47-.77.67-1.39.67-.67,0-1.1-.21-1.47-.67l-7.01-8.47v8.31c0,.67-.4.82-1.17.82s-1.16-.16-1.16-.82v-10.73c0-.79.44-1.19,1.28-1.19.6,0,1.03.21,1.39.61l8.07,9.73,8.14-9.73Z"/>
        <path class="cls-2" d="m34.05,37.44c0,.67-.4.82-1.17.82s-1.16-.16-1.16-.82v-11.2c0-.67.4-.82,1.16-.82s1.17.16,1.17.82v11.2Z"/>
        <path class="cls-2" d="m39.74,30.64l9.24-4.98c.33-.18.63-.25,1.42-.25.51,0,.95.26.95.81,0,.33-.18.61-.56.81l-9.36,4.72,9.68,4.91c.39.19.56.47.56.81,0,.54-.44.81-.95.81-.79,0-1.09-.07-1.42-.25l-9.56-5.07v4.49c0,.67-.4.82-1.17.82s-1.16-.16-1.16-.82v-11.2c0-.67.4-.82,1.16-.82s1.17.16,1.17.82v4.4Z"/>
        <path class="cls-2" d="m56.11,32.88v2.05c0,.75.89,1.37,2.95,1.37h8.38c.56,0,.68.32.68.95s-.12.95-.68.95h-8.45c-3.45,0-5.19-1.09-5.19-3.26v-6.19c0-2.19,1.74-3.26,5.19-3.26h2.61c.54,0,.67.32.67.95s-.12.95-.67.95h-2.54c-2.05,0-2.95.6-2.95,1.37v2.24h11.38c.56,0,.68.32.68.95s-.12.95-.68.95h-11.38Z"/>
        <path class="cls-2" d="m72.68,36.09c.98,0,1.39.33,1.39,1.09s-.4,1.09-1.39,1.09-1.39-.33-1.39-1.09.4-1.09,1.39-1.09Z"/>
      </g>
      <g>
        <path class="cls-2" d="m12.82,55.23l-7.71-10.91c-.09-.14-.14-.26-.14-.4,0-.51.74-.93,1.35-.93.3,0,.67.11.84.37l7.08,10.19,7.01-10.19c.16-.25.44-.37.77-.37.6,0,1.31.4,1.31.95,0,.14-.05.28-.14.39l-7.63,10.91c-.28.4-.7.61-1.39.61s-1.09-.21-1.37-.61Z"/>
        <path class="cls-2" d="m27.62,50.47v2.05c0,.75.89,1.37,2.95,1.37h8.38c.56,0,.68.32.68.95s-.12.95-.68.95h-8.45c-3.45,0-5.19-1.09-5.19-3.26v-6.19c0-2.19,1.74-3.26,5.19-3.26h2.61c.54,0,.67.32.67.95s-.12.95-.67.95h-2.54c-2.05,0-2.95.6-2.95,1.37v2.24h11.38c.56,0,.68.32.68.95s-.12.95-.68.95h-11.38Z"/>
        <path class="cls-2" d="m58.36,52.52c0,2.23-1.82,3.26-5.21,3.26h-5.31c-3.45,0-5.19-1.09-5.19-3.26v-6.19c0-2.19,1.74-3.26,5.19-3.26h2.47c.56,0,.68.32.68.95s-.12.95-.68.95h-2.4c-2.05,0-2.95.6-2.95,1.37v6.19c0,.75.89,1.37,2.95,1.37h5.17c2.05,0,2.93-.61,2.93-1.37v-3.12c0-.68.39-.82,1.16-.82s1.19.14,1.19.82v3.12Z"/>
        <path class="cls-2" d="m75.8,54.53l-7.64-10.91s-.04-.05-.06-.08l-.24.4c-.3.49-.6.97-.89,1.45l3.55,5.2h-6.8c-.4.63-.8,1.26-1.2,1.89h9.29l2.07,3.02c.18.25.46.35.77.35.6,0,1.28-.4,1.28-.93,0-.12-.04-.26-.12-.4Z"/>
      </g>
    </g>
  </g>
</svg>