<svg width="40" height="40" viewBox="0 0 40 40" fill="none" xmlns="http://www.w3.org/2000/svg">
<g clip-path="url(#clip0_102_613)">
<rect width="40" height="40" rx="20" fill="#F1F1F1"/>
<path d="M0.625 20C0.625 9.29688 9.29688 0.625 20 0.625C30.7031 0.625 39.375 9.29688 39.375 20C39.375 30.7031 30.7031 39.375 20 39.375C9.29688 39.375 0.625 30.7031 0.625 20ZM23.4375 29.0625V20H28.9766C29.8125 20 30.2344 18.9844 29.6406 18.3984L20.6641 9.46875C20.2969 9.10156 19.7109 9.10156 19.3438 9.46875L10.3594 18.3984C9.76563 18.9922 10.1875 20 11.0234 20H16.5625V29.0625C16.5625 29.5781 16.9844 30 17.5 30H22.5C23.0156 30 23.4375 29.5781 23.4375 29.0625Z" fill="#4C3289"/>
</g>
<defs>
<clipPath id="clip0_102_613">
<rect width="40" height="40" rx="20" fill="white"/>
</clipPath>
</defs>
</svg>
